<svg width="375" height="253" viewBox="0 0 375 253" fill="none" xmlns="http://www.w3.org/2000/svg">
<path d="M217.208 76.16C217.208 90.6667 212.088 103.211 201.848 113.792C191.608 124.203 176.675 131.712 157.048 136.32C167.629 139.221 175.651 144 181.112 150.656C186.573 157.141 189.304 164.651 189.304 173.184C189.304 186.667 185.037 198.357 176.504 208.256C168.141 218.155 155.853 225.835 139.64 231.296C123.427 236.587 103.885 239.232 81.016 239.232C72.4827 239.232 65.656 238.976 60.536 238.464C60.3653 243.243 58.3173 246.827 54.392 249.216C50.4667 251.605 45.432 252.8 39.288 252.8C33.144 252.8 28.8773 251.435 26.488 248.704C24.2693 245.973 23.3307 241.963 23.672 236.672C25.208 212.779 28.1947 187.776 32.632 161.664C37.0693 135.381 42.7013 110.037 49.528 85.632C50.7227 81.3653 53.112 78.3787 56.696 76.672C60.28 74.9653 64.9733 74.112 70.776 74.112C81.1867 74.112 86.392 77.0133 86.392 82.816C86.392 85.2053 85.88 87.936 84.856 91.008C80.4187 104.32 75.9813 122.411 71.544 145.28C67.1067 167.979 63.9493 189.653 62.072 210.304C70.264 210.987 76.92 211.328 82.04 211.328C105.933 211.328 123.427 207.915 134.52 201.088C145.784 194.091 151.416 185.216 151.416 174.464C151.416 166.955 148.173 160.64 141.688 155.52C135.373 150.4 124.707 147.584 109.688 147.072C106.275 146.901 103.885 146.048 102.52 144.512C101.155 142.976 100.472 140.501 100.472 137.088C100.472 132.139 101.496 128.128 103.544 125.056C105.592 121.984 109.347 120.363 114.808 120.192C126.925 119.851 137.848 118.059 147.576 114.816C157.475 111.573 165.24 107.051 170.872 101.248C176.504 95.2747 179.32 88.3627 179.32 80.512C179.32 70.6133 174.456 62.848 164.728 57.216C155 51.4133 140.067 48.512 119.928 48.512C101.667 48.512 84.0027 50.9013 66.936 55.68C49.8693 60.288 35.3627 66.176 23.416 73.344C17.9547 76.5867 13.3467 78.208 9.592 78.208C6.52 78.208 4.13067 77.184 2.424 75.136C0.888 72.9173 0.12 70.1867 0.12 66.944C0.12 62.6773 0.973334 59.008 2.68 55.936C4.55733 52.864 8.90933 49.3653 15.736 45.44C30.072 37.248 46.8827 30.848 66.168 26.24C85.4533 21.632 105.165 19.328 125.304 19.328C156.195 19.328 179.235 24.5333 194.424 34.944C209.613 45.3547 217.208 59.0933 217.208 76.16ZM255.716 87.68C251.961 87.68 248.975 86.8267 246.756 85.12C244.537 83.4133 243.428 80.6827 243.428 76.928C243.428 75.392 243.684 73.6 244.196 71.552C246.073 63.7013 247.439 56.448 248.292 49.792C249.316 43.136 249.828 35.712 249.828 27.52C249.828 18.9867 251.791 12.416 255.716 7.80798C259.812 3.19999 265.017 0.895996 271.332 0.895996C277.476 0.895996 282.084 2.60266 285.156 6.01599C288.399 9.25866 290.02 13.696 290.02 19.328C290.02 25.3013 288.228 33.2373 284.644 43.136C281.06 53.0347 276.708 62.6773 271.588 72.064C268.175 78.3787 265.444 82.56 263.396 84.608C261.519 86.656 258.959 87.68 255.716 87.68ZM334.904 246.912C326.029 246.912 319.203 244.864 314.424 240.768C309.816 236.672 307.512 232.064 307.512 226.944C307.512 222.507 309.133 218.667 312.376 215.424C315.619 212.181 320.397 210.56 326.712 210.56C328.931 210.56 331.491 210.816 334.392 211.328C337.464 211.669 339.768 211.925 341.304 212.096C341.133 207.659 340.109 203.477 338.232 199.552C336.525 195.627 334.307 191.872 331.576 188.288C328.845 184.533 326.285 181.291 323.896 178.56C318.605 188.629 313.315 196.992 308.024 203.648C302.904 210.304 297.272 216.619 291.128 222.592C288.056 225.664 284.813 227.2 281.4 227.2C278.669 227.2 276.451 226.261 274.744 224.384C273.037 222.336 272.184 219.861 272.184 216.96C272.184 213.547 273.379 210.389 275.768 207.488L279.096 203.392C288.483 191.787 295.565 182.229 300.344 174.72C303.416 169.771 306.488 163.883 309.56 157.056C312.803 150.229 316.984 140.928 322.104 129.152C325.347 121.643 332.088 117.888 342.328 117.888C347.107 117.888 350.435 118.315 352.312 119.168C354.189 120.021 355.128 121.387 355.128 123.264C355.128 124.288 354.787 125.909 354.104 128.128C353.421 130.347 352.483 132.565 351.288 134.784C348.216 140.928 346.68 146.133 346.68 150.4C346.68 152.96 347.533 155.776 349.24 158.848C351.117 161.92 353.933 165.76 357.688 170.368C363.149 177.536 367.245 183.68 369.976 188.8C372.877 193.749 374.328 199.211 374.328 205.184C374.328 212.352 372.621 219.179 369.208 225.664C365.965 231.979 361.357 237.099 355.384 241.024C349.411 244.949 342.584 246.912 334.904 246.912Z" fill="#FF4C31"/>
</svg>
